# xmcd
#
# Track frame offsets: 
#        180
#        1065
#        15513
#        31323
#        45320
#        56163
#        69880
#        84737
#        98548
#        112487
#        128549
#        143531
#        157488
#        168070
#
# Disc length: 2435 seconds
#
# Revision: 2
# Processed by: cddbd v1.5.1PL0 Copyright (c) Steve Scherf et al.
# Submitted via: ExactAudioCopy v0.95a5
#
DISCID=a709810e
DTITLE=Cledus "T." Judd - I Stoled This Record
DYEAR=1996
DGENRE=Country
TTITLE0=Cledus BUSTED!
TTITLE1=If Shania Was Mine
TTITLE2=(She's Got A Butt) Bigger Than The Beatles
TTITLE3=The Change
TTITLE4=Skoal: The Grundy County Spitting Incident
TTITLE5=Jackson (Alan That Is)
TTITLE6=You Have No Right To Remain Violent
TTITLE7=Cadirac Style
TTITLE8=Quit Teasin' Me Ed
TTITLE9=I'm Not In Here For Love (Just Yer Beer)
TTITLE10=Cledus Went Down To Florida
TTITLE11=1-900-SHEILA
TTITLE12=Stoled: The Copyright Infringement Incident
TTITLE13=Grandpa Got Runned Over By A John Deere
EXTD=
EXTT0=
EXTT1=
EXTT2=
EXTT3=
EXTT4=
EXTT5=
EXTT6=
EXTT7=
EXTT8=
EXTT9=
EXTT10=
EXTT11=
EXTT12=
EXTT13=
PLAYORDER=
